<svg width="47" height="47" viewBox="0 0 47 47" fill="none" xmlns="http://www.w3.org/2000/svg">
<path d="M0.25 5.59302C0.25 2.83159 2.48858 0.593018 5.25 0.593018H41.25C44.0114 0.593018 46.25 2.83159 46.25 5.59302V41.593C46.25 44.3544 44.0114 46.593 41.25 46.593H5.25C2.48858 46.593 0.25 44.3544 0.25 41.593V5.59302ZM13.9938 38.0326C13.0532 38.5983 12.6635 39.8163 13.3729 40.6538C14.535 42.0257 16.2963 42.9897 18.8289 42.9897C22.6622 42.9897 25.2944 40.9452 25.2944 36.473V23.8741C25.2944 22.6744 24.3219 21.7019 23.1222 21.7019V21.7019C21.9225 21.7019 20.95 22.6744 20.95 23.8741V36.3708C20.95 38.5686 20.0556 39.1308 18.65 39.1308C18.0225 39.1308 17.5507 38.9476 17.1629 38.6451C16.2179 37.9081 15.0208 37.4149 13.9938 38.0326V38.0326ZM29.3493 37.5661C28.3796 38.1282 27.9973 39.378 28.7383 40.219C30.1908 41.8678 32.4274 42.9897 35.5167 42.9897C39.6056 42.9897 42.6722 40.8686 42.6722 36.9586C42.6722 33.3552 40.6022 31.7452 36.9222 30.1608L35.8489 29.7008C33.9833 28.9086 33.1911 28.3719 33.1911 27.0941C33.1911 26.0464 33.9833 25.2286 35.2611 25.2286C35.7748 25.2286 36.2167 25.3227 36.6113 25.5296C37.6398 26.069 38.8731 26.5453 39.8405 25.9028V25.9028C40.7148 25.3221 41.0178 24.1293 40.2921 23.3711C39.0008 22.0218 37.3465 21.4719 35.2611 21.4719C31.4022 21.4719 28.9233 23.9252 28.9233 27.1708C28.9233 30.6975 30.9933 32.3586 34.1111 33.6875L35.1844 34.1475C37.1778 35.0163 38.3533 35.553 38.3533 37.0352C38.3533 38.2619 37.2033 39.1564 35.4144 39.1564C34.1515 39.1564 33.2056 38.7668 32.4528 38.1278C31.5742 37.3821 30.3463 36.9881 29.3493 37.5661V37.5661Z" fill="#FFB800"/>
</svg>
