<svg width="47" height="41" viewBox="0 0 47 41" fill="none" xmlns="http://www.w3.org/2000/svg">
<path d="M23.25 16.6625C25.4537 16.6625 27.2509 18.4094 27.2509 20.593C27.2509 22.6727 25.4537 24.4404 23.25 24.4404C21.0463 24.4404 19.2491 22.6727 19.2491 20.593C19.2491 18.4094 21.0463 16.6625 23.25 16.6625ZM13.344 37.2302C14.6919 38.0204 17.6444 36.8142 21.0463 33.6948C19.9337 32.4678 18.8426 31.1368 17.8156 29.7434C16.0612 29.5771 14.3281 29.3275 12.6807 28.9948C11.5895 33.4452 11.996 36.5023 13.344 37.2302ZM14.863 25.293L14.2426 24.2324C14.0072 24.8355 13.7719 25.4386 13.6221 26.0209C14.1998 26.1457 14.8416 26.2496 15.5049 26.3536C15.2909 26.0001 15.077 25.6466 14.863 25.293ZM28.8556 23.7125L30.5886 20.593L28.8556 17.4736C28.2137 16.3713 27.5291 15.3939 26.9086 14.4165C25.7533 14.3541 24.5337 14.3541 23.25 14.3541C21.9663 14.3541 20.7467 14.3541 19.5914 14.4165C18.9709 15.3939 18.2863 16.3713 17.6444 17.4736L15.9114 20.593L17.6444 23.7125C18.2863 24.8147 18.9709 25.7921 19.5914 26.7696C20.7467 26.8319 21.9663 26.8319 23.25 26.8319C24.5337 26.8319 25.7533 26.8319 26.9086 26.7696C27.5291 25.7921 28.2137 24.8147 28.8556 23.7125ZM23.25 9.73728C22.8435 10.1948 22.4156 10.6731 21.9877 11.2346C22.4156 11.2346 22.8221 11.2346 23.25 11.2346C23.6779 11.2346 24.0844 11.2346 24.5123 11.2346C24.0844 10.6731 23.6565 10.1948 23.25 9.73728ZM23.25 31.4488C23.6565 30.9912 24.0844 30.5129 24.5123 29.9514C24.0844 29.9514 23.6779 29.9514 23.25 29.9514C22.8221 29.9514 22.4156 29.9514 21.9877 29.9514C22.4156 30.5129 22.8435 30.9912 23.25 31.4488ZM33.1347 3.95587C31.8081 3.1656 28.8556 4.3718 25.4537 7.49126C26.5663 8.71825 27.6574 10.0492 28.6844 11.4426C30.4388 11.609 32.1719 11.8585 33.8193 12.1913C34.9105 7.74082 34.504 4.68374 33.1347 3.95587ZM31.637 15.893L32.2574 16.9536C32.4928 16.3505 32.7281 15.7474 32.8779 15.1651C32.3002 15.0404 31.6584 14.9364 30.9951 14.8324C31.2091 15.1859 31.423 15.5395 31.637 15.893ZM34.7393 1.23154C37.8844 2.97844 38.2267 7.57445 36.9002 12.9399C42.3347 14.4997 46.25 17.0784 46.25 20.593C46.25 24.1076 42.3347 26.6864 36.9002 28.2461C38.2267 33.6116 37.8844 38.2076 34.7393 39.9545C31.6156 41.7014 27.3579 39.7049 23.25 35.8992C19.1421 39.7049 14.8844 41.7014 11.7393 39.9545C8.61558 38.2076 8.27326 33.6116 9.59977 28.2461C4.16535 26.6864 0.25 24.1076 0.25 20.593C0.25 17.0784 4.16535 14.4997 9.59977 12.9399C8.27326 7.57445 8.61558 2.97844 11.7393 1.23154C14.8844 -0.515364 19.1421 1.48109 23.25 5.28684C27.3579 1.48109 31.6156 -0.515364 34.7393 1.23154ZM34.1188 20.593C34.8463 22.1528 35.4881 23.7125 36.023 25.293C40.516 23.9828 43.0407 22.1112 43.0407 20.593C43.0407 19.0749 40.516 17.2032 36.023 15.893C35.4881 17.4736 34.8463 19.0333 34.1188 20.593ZM12.3812 20.593C11.6537 19.0333 11.0119 17.4736 10.477 15.893C5.98395 17.2032 3.4593 19.0749 3.4593 20.593C3.4593 22.1112 5.98395 23.9828 10.477 25.293C11.0119 23.7125 11.6537 22.1528 12.3812 20.593ZM31.637 25.293C31.423 25.6466 31.2091 26.0001 30.9951 26.3536C31.6584 26.2496 32.3002 26.1457 32.8779 26.0209C32.7281 25.4386 32.4928 24.8355 32.2574 24.2324L31.637 25.293ZM25.4537 33.6948C28.8556 36.8142 31.8081 38.0204 33.1347 37.2302C34.504 36.5023 34.9105 33.4452 33.8193 28.9948C32.1719 29.3275 30.4388 29.5771 28.6844 29.7434C27.6574 31.1368 26.5663 32.4678 25.4537 33.6948ZM14.863 15.893C15.077 15.5395 15.2909 15.1859 15.5049 14.8324C14.8416 14.9364 14.1998 15.0404 13.6221 15.1651C13.7719 15.7474 14.0072 16.3505 14.2426 16.9536L14.863 15.893ZM21.0463 7.49126C17.6444 4.3718 14.6919 3.1656 13.344 3.95587C11.996 4.68374 11.5895 7.74082 12.6807 12.1913C14.3281 11.8585 16.0612 11.609 17.8156 11.4426C18.8426 10.0492 19.9337 8.71825 21.0463 7.49126Z" fill="#00A7EF"/>
</svg>
